#Comment line ignore any data following # character 
#Hierarchical Translation and Rotation (.htr) file 
[Header]	
#Header keywords are followed by a single value 
FileType HTR		#Single word string
DataType HTRS		#Translation followed by rotation and scale data
FileVersion 1		#integer
NumSegments 84		#integer
NumFrames 2		#integer
DataFrameRate 30		#integer, data frame rate in this file
EulerRotationOrder ZYX
CalibrationUnits mm
RotationUnits Degrees
GlobalAxisofGravity Y
BoneLengthAxis Y
ScaleFactor 1.00
[SegmentNames&Hierarchy]
#CHILD	PARENT
MASTER GLOBAL
root MASTER
chest root
L_mid_tent01 root
R_mid_tent01 root
spine01 root
Bip01_Neck chest
L_humerus chest
R_humerus chest
weapon_bone chest
Bip01_Head Bip01_Neck
eye_left_bone Bip01_Head
eye_right_bone Bip01_Head
L_forearm L_humerus
L_front_hand L_forearm
L_weapon_bone L_forearm
L_front_hand01_01 L_front_hand
L_front_hand02_01 L_front_hand
L_front_hand03_01 L_front_hand
L_front_hand01_02 L_front_hand01_01
L_front_hand02_02 L_front_hand02_01
L_front_hand03_02 L_front_hand03_01
R_forearm R_humerus
R_front_hand R_forearm
R_weapon_bone R_forearm
R_front_hand01_01 R_front_hand
R_front_hand02_01 R_front_hand
R_front_hand03_01 R_front_hand
R_front_hand01_02 R_front_hand01_01
R_front_hand02_02 R_front_hand02_01
R_front_hand03_02 R_front_hand03_01
null_rope01_connect L_mid_tent01
Rope1_Seg01 null_rope01_connect
Rope1_Seg02 Rope1_Seg01
Rope1_Seg03 Rope1_Seg02
Rope1_Seg04 Rope1_Seg03
Rope1_Seg05 Rope1_Seg04
Rope1_Seg06 Rope1_Seg05
Rope1_Seg07 Rope1_Seg06
Rope1_Seg09 Rope1_Seg07
L_mid_hand01 Rope1_Seg09
L_mid_hand02 Rope1_Seg09
L_mid_hand03 Rope1_Seg09
null_rope02_connect R_mid_tent01
Rope2_Seg01 null_rope02_connect
Rope2_Seg02 Rope2_Seg01
Rope2_Seg03 Rope2_Seg02
Rope2_Seg04 Rope2_Seg03
Rope2_Seg05 Rope2_Seg04
Rope2_Seg06 Rope2_Seg05
Rope2_Seg07 Rope2_Seg06
Rope2_Seg09 Rope2_Seg07
R_mid_hand01 Rope2_Seg09
R_mid_hand02 Rope2_Seg09
R_mid_hand03 Rope2_Seg09
spine02 spine01
spine03 spine02
pelvis spine03
null_rope03_connect pelvis
null_rope04_connect pelvis
Rope3_Seg01 null_rope03_connect
Rope3_Seg02 Rope3_Seg01
Rope3_Seg03 Rope3_Seg02
Rope3_Seg04 Rope3_Seg03
Rope3_Seg05 Rope3_Seg04
Rope3_Seg06 Rope3_Seg05
Rope3_Seg07 Rope3_Seg06
Rope3_Seg08 Rope3_Seg07
Rope3_Seg09 Rope3_Seg08
R_rear_hand01 Rope3_Seg09
R_rear_hand02 Rope3_Seg09
R_rear_hand03 Rope3_Seg09
Rope4_Seg01 null_rope04_connect
Rope4_Seg02 Rope4_Seg01
Rope4_Seg03 Rope4_Seg02
Rope4_Seg04 Rope4_Seg03
Rope4_Seg05 Rope4_Seg04
Rope4_Seg06 Rope4_Seg05
Rope4_Seg07 Rope4_Seg06
Rope4_Seg08 Rope4_Seg07
Rope4_Seg09 Rope4_Seg08
L_rear_hand01 Rope4_Seg09
L_rear_hand02 Rope4_Seg09
L_rear_hand03 Rope4_Seg09
[BasePosition]
#SegmentName Tx, Ty, Tz, Rx, Ry, Rz, BoneLength
MASTER 0.000000 0.000000 0.000000 -90.000000 0.000000 0.000000 10.000000 
root 0.000000 0.000000 0.000000 0.000000 0.000000 0.000000 10.000000 
chest 0.000000 0.000000 0.000000 0.000000 0.000000 0.000000 10.000000 
L_mid_tent01 0.000000 0.000000 0.000000 0.000000 0.000000 0.000000 10.000000 
R_mid_tent01 0.000000 0.000000 0.000000 0.000000 0.000000 0.000000 10.000000 
spine01 0.000000 0.000000 0.000000 0.000000 0.000000 0.000000 10.000000 
Bip01_Neck 0.000000 0.000000 0.000000 0.000000 0.000000 0.000000 10.000000 
L_humerus 0.000000 0.000000 0.000000 0.000000 0.000000 0.000000 10.000000 
R_humerus 0.000000 0.000000 0.000000 0.000000 0.000000 0.000000 10.000000 
weapon_bone 0.000000 0.000000 0.000000 0.000000 0.000000 0.000000 10.000000 
Bip01_Head 0.000000 0.000000 0.000000 0.000000 0.000000 0.000000 10.000000 
eye_left_bone 0.000000 0.000000 0.000000 0.000000 0.000000 0.000000 10.000000 
eye_right_bone 0.000000 0.000000 0.000000 0.000000 0.000000 0.000000 10.000000 
L_forearm 0.000000 0.000000 0.000000 0.000000 0.000000 0.000000 10.000000 
L_front_hand 0.000000 0.000000 0.000000 0.000000 0.000000 0.000000 10.000000 
L_weapon_bone 0.000000 0.000000 0.000000 0.000000 0.000000 0.000000 10.000000 
L_front_hand01_01 0.000000 0.000000 0.000000 0.000000 0.000000 0.000000 10.000000 
L_front_hand02_01 0.000000 0.000000 0.000000 0.000000 0.000000 0.000000 10.000000 
L_front_hand03_01 0.000000 0.000000 0.000000 0.000000 0.000000 0.000000 10.000000 
L_front_hand01_02 0.000000 0.000000 0.000000 0.000000 0.000000 0.000000 10.000000 
L_front_hand02_02 0.000000 0.000000 0.000000 0.000000 0.000000 0.000000 10.000000 
L_front_hand03_02 0.000000 0.000000 0.000000 0.000000 0.000000 0.000000 10.000000 
R_forearm 0.000000 0.000000 0.000000 0.000000 0.000000 0.000000 10.000000 
R_front_hand 0.000000 0.000000 0.000000 0.000000 0.000000 0.000000 10.000000 
R_weapon_bone 0.000000 0.000000 0.000000 0.000000 0.000000 0.000000 10.000000 
R_front_hand01_01 0.000000 0.000000 0.000000 0.000000 0.000000 0.000000 10.000000 
R_front_hand02_01 0.000000 0.000000 0.000000 0.000000 0.000000 0.000000 10.000000 
R_front_hand03_01 0.000000 0.000000 0.000000 0.000000 0.000000 0.000000 10.000000 
R_front_hand01_02 0.000000 0.000000 0.000000 0.000000 0.000000 0.000000 10.000000 
R_front_hand02_02 0.000000 0.000000 0.000000 0.000000 0.000000 0.000000 10.000000 
R_front_hand03_02 0.000000 0.000000 0.000000 0.000000 0.000000 0.000000 10.000000 
null_rope01_connect 0.000000 0.000000 0.000000 0.000000 0.000000 0.000000 10.000000 
Rope1_Seg01 0.000000 0.000000 0.000000 0.000000 0.000000 0.000000 10.000000 
Rope1_Seg02 0.000000 0.000000 0.000000 0.000000 0.000000 0.000000 10.000000 
Rope1_Seg03 0.000000 0.000000 0.000000 0.000000 0.000000 0.000000 10.000000 
Rope1_Seg04 0.000000 0.000000 0.000000 0.000000 0.000000 0.000000 10.000000 
Rope1_Seg05 0.000000 0.000000 0.000000 0.000000 0.000000 0.000000 10.000000 
Rope1_Seg06 0.000000 0.000000 0.000000 0.000000 0.000000 0.000000 10.000000 
Rope1_Seg07 0.000000 0.000000 0.000000 0.000000 0.000000 0.000000 10.000000 
Rope1_Seg09 0.000000 0.000000 0.000000 0.000000 0.000000 0.000000 10.000000 
L_mid_hand01 0.000000 0.000000 0.000000 0.000000 0.000000 0.000000 10.000000 
L_mid_hand02 0.000000 0.000000 0.000000 0.000000 0.000000 0.000000 10.000000 
L_mid_hand03 0.000000 0.000000 0.000000 0.000000 0.000000 0.000000 10.000000 
null_rope02_connect 0.000000 0.000000 0.000000 0.000000 0.000000 0.000000 10.000000 
Rope2_Seg01 0.000000 0.000000 0.000000 0.000000 0.000000 0.000000 10.000000 
Rope2_Seg02 0.000000 0.000000 0.000000 0.000000 0.000000 0.000000 10.000000 
Rope2_Seg03 0.000000 0.000000 0.000000 0.000000 0.000000 0.000000 10.000000 
Rope2_Seg04 0.000000 0.000000 0.000000 0.000000 0.000000 0.000000 10.000000 
Rope2_Seg05 0.000000 0.000000 0.000000 0.000000 0.000000 0.000000 10.000000 
Rope2_Seg06 0.000000 0.000000 0.000000 0.000000 0.000000 0.000000 10.000000 
Rope2_Seg07 0.000000 0.000000 0.000000 0.000000 0.000000 0.000000 10.000000 
Rope2_Seg09 0.000000 0.000000 0.000000 0.000000 0.000000 0.000000 10.000000 
R_mid_hand01 0.000000 0.000000 0.000000 0.000000 0.000000 0.000000 10.000000 
R_mid_hand02 0.000000 0.000000 0.000000 0.000000 0.000000 0.000000 10.000000 
R_mid_hand03 0.000000 0.000000 0.000000 0.000000 0.000000 0.000000 10.000000 
spine02 0.000000 0.000000 0.000000 0.000000 0.000000 0.000000 10.000000 
spine03 0.000000 0.000000 0.000000 0.000000 0.000000 0.000000 10.000000 
pelvis 0.000000 0.000000 0.000000 0.000000 0.000000 0.000000 10.000000 
null_rope03_connect 0.000000 0.000000 0.000000 0.000000 0.000000 0.000000 10.000000 
null_rope04_connect 0.000000 0.000000 0.000000 0.000000 0.000000 0.000000 10.000000 
Rope3_Seg01 0.000000 0.000000 0.000000 0.000000 0.000000 0.000000 10.000000 
Rope3_Seg02 0.000000 0.000000 0.000000 0.000000 0.000000 0.000000 10.000000 
Rope3_Seg03 0.000000 0.000000 0.000000 0.000000 0.000000 0.000000 10.000000 
Rope3_Seg04 0.000000 0.000000 0.000000 0.000000 0.000000 0.000000 10.000000 
Rope3_Seg05 0.000000 0.000000 0.000000 0.000000 0.000000 0.000000 10.000000 
Rope3_Seg06 0.000000 0.000000 0.000000 0.000000 0.000000 0.000000 10.000000 
Rope3_Seg07 0.000000 0.000000 0.000000 0.000000 0.000000 0.000000 10.000000 
Rope3_Seg08 0.000000 0.000000 0.000000 0.000000 0.000000 0.000000 10.000000 
Rope3_Seg09 0.000000 0.000000 0.000000 0.000000 0.000000 0.000000 10.000000 
R_rear_hand01 0.000000 0.000000 0.000000 0.000000 0.000000 0.000000 10.000000 
R_rear_hand02 0.000000 0.000000 0.000000 0.000000 0.000000 0.000000 10.000000 
R_rear_hand03 0.000000 0.000000 0.000000 0.000000 0.000000 0.000000 10.000000 
Rope4_Seg01 0.000000 0.000000 0.000000 0.000000 0.000000 0.000000 10.000000 
Rope4_Seg02 0.000000 0.000000 0.000000 0.000000 0.000000 0.000000 10.000000 
Rope4_Seg03 0.000000 0.000000 0.000000 0.000000 0.000000 0.000000 10.000000 
Rope4_Seg04 0.000000 0.000000 0.000000 0.000000 0.000000 0.000000 10.000000 
Rope4_Seg05 0.000000 0.000000 0.000000 0.000000 0.000000 0.000000 10.000000 
Rope4_Seg06 0.000000 0.000000 0.000000 0.000000 0.000000 0.000000 10.000000 
Rope4_Seg07 0.000000 0.000000 0.000000 0.000000 0.000000 0.000000 10.000000 
Rope4_Seg08 0.000000 0.000000 0.000000 0.000000 0.000000 0.000000 10.000000 
Rope4_Seg09 0.000000 0.000000 0.000000 0.000000 0.000000 0.000000 10.000000 
L_rear_hand01 0.000000 0.000000 0.000000 0.000000 0.000000 0.000000 10.000000 
L_rear_hand02 0.000000 0.000000 0.000000 0.000000 0.000000 0.000000 10.000000 
L_rear_hand03 0.000000 0.000000 0.000000 0.000000 0.000000 0.000000 10.000000 
#Beginning of Data. Separated by tabs
#Fr	Tx	Ty	Tz	Rx	Ry	Rz	SF
[MASTER]
26 0.000000 0.000000 0.000000 0.001660 0.001660 0.001660 0.000000
27 0.000000 0.000000 0.000000 0.001660 0.001660 0.001660 0.000000
[root]
26 -16.502304 9.364140 1448.317383 -91.728889 -11.584497 -89.471619 1448.441650
27 -16.502304 9.364140 1448.317383 -91.728889 -11.584497 -89.471619 1448.441650
[chest]
26 -84.512650 -34.090519 0.000000 -2.144813 0.313244 176.732239 91.129311
27 -84.512650 -34.090519 0.000000 -2.144813 0.313244 176.732239 91.129311
[L_mid_tent01]
26 27.299511 22.177458 -249.918259 -28.266106 32.791584 -5.365355 252.381134
27 27.299511 22.177458 -249.918259 -28.266106 32.791584 -5.365355 252.381134
[R_mid_tent01]
26 23.228794 24.509907 226.238495 -156.204071 -32.814335 0.416457 228.744751
27 23.228794 24.509907 226.238495 -156.204071 -32.814346 0.416457 228.744751
[spine01]
26 -0.361383 -0.195265 0.000000 -0.000001 -0.000007 22.052340 0.410763
27 -0.361383 -0.195265 0.000000 -0.000001 -0.000007 22.052340 0.410763
[Bip01_Neck]
26 165.484543 71.581718 0.000119 175.896118 1.177290 24.871183 180.302734
27 165.484543 71.581718 0.000119 175.896118 1.177290 24.871183 180.302734
[L_humerus]
26 -13.983130 -135.272980 -120.471481 139.909653 88.317627 -130.290085 181.680161
27 -13.983130 -135.272980 -120.471481 139.909836 88.317749 -130.290085 181.680161
[R_humerus]
26 -13.983309 -135.273102 125.287651 133.576981 -87.684464 -45.901276 184.909012
27 -13.983309 -135.273102 125.287651 133.576981 -87.684464 -45.901276 184.909012
[weapon_bone]
26 235.964890 -300.705902 0.000000 0.000000 -89.951546 -128.212341 382.234833
27 235.964890 -300.705902 0.000000 0.000000 -89.951546 -128.212341 382.234833
[Bip01_Head]
26 193.865784 99.525146 7.890730 1.727521 4.534425 -43.429157 218.062973
27 193.865784 99.525146 7.890730 1.727521 4.534425 -43.429157 218.062973
[eye_left_bone]
26 -24.626970 125.451866 -64.772606 0.000000 -90.000000 -99.840431 143.318359
27 -24.626970 125.451866 -64.772606 0.000000 -90.000000 -99.840431 143.318359
[eye_right_bone]
26 -24.626970 125.451866 64.327362 0.000000 -89.965736 80.156380 143.117676
27 -24.626970 125.451866 64.327362 0.000000 -89.965736 80.156380 143.117676
[L_forearm]
26 322.776093 0.000000 -0.000119 0.000248 -0.002334 -102.125244 322.776093
27 322.776093 0.000000 -0.000119 0.000248 -0.002334 -102.125244 322.776093
[L_front_hand]
26 241.149185 -0.042021 -3.300071 -179.659958 -2.242151 -0.019832 241.171753
27 241.149185 -0.042021 -3.300071 -179.659958 -2.242151 -0.019832 241.171753
[L_weapon_bone]
26 156.183838 0.000000 0.000000 0.000014 0.000007 0.000001 156.183838
27 156.183838 0.000000 0.000000 0.000014 0.000007 0.000001 156.183838
[L_front_hand01_01]
26 86.095154 20.947098 -0.655860 -0.366594 -0.477154 75.385574 88.609184
27 86.095154 20.947098 -0.655860 -0.366594 -0.477154 75.385574 88.609184
[L_front_hand02_01]
26 86.935165 -11.437475 24.513514 154.399796 -59.883835 -61.369587 91.046425
27 86.935165 -11.437475 24.513514 154.399796 -59.883835 -61.369587 91.046425
[L_front_hand03_01]
26 86.637497 -14.123976 -20.424902 -153.913849 58.118122 -62.702866 90.126129
27 86.637497 -14.123976 -20.424902 -153.913849 58.118122 -62.702866 90.126129
[L_front_hand01_02]
26 71.020905 -0.000179 0.000030 0.000334 -0.002323 -106.379684 71.020905
27 71.020905 -0.000179 0.000030 0.000334 -0.002323 -106.379684 71.020905
[L_front_hand02_02]
26 71.020927 -0.000119 0.000060 0.000334 -0.002323 -106.379684 71.020927
27 71.020927 -0.000119 0.000060 0.000334 -0.002323 -106.379684 71.020927
[L_front_hand03_02]
26 71.020905 -0.000060 0.000060 0.000334 -0.002323 -106.379684 71.020905
27 71.020905 -0.000060 0.000060 0.000334 -0.002323 -106.379684 71.020905
[R_forearm]
26 322.776428 -0.000060 0.000030 0.208463 0.026596 -98.191154 322.776428
27 322.776428 -0.000060 0.000030 0.208463 0.026596 -98.191154 322.776428
[R_front_hand]
26 238.847015 -0.006795 2.210259 -0.270529 1.703932 2.322530 238.857239
27 238.847015 -0.006795 2.210259 -0.270529 1.703932 2.322530 238.857239
[R_weapon_bone]
26 155.664093 0.002503 -0.000030 0.003487 0.001180 -90.988930 155.664078
27 155.664093 0.002503 -0.000030 0.003487 0.001180 -90.988930 155.664078
[R_front_hand01_01]
26 87.624611 14.231146 22.918642 -154.633499 -59.950619 61.746044 91.683487
27 87.624611 14.231146 22.918642 -154.633499 -59.950619 61.746044 91.683487
[R_front_hand02_01]
26 89.356956 14.367283 -19.491137 154.602661 58.302849 63.744389 92.579636
27 89.356956 14.367283 -19.491137 154.602661 58.302849 63.744389 92.579636
[R_front_hand03_01]
26 87.286232 -22.307278 -0.143439 0.162155 -0.423168 -75.767921 90.091743
27 87.286232 -22.307278 -0.143439 0.162155 -0.423168 -75.767921 90.091743
[R_front_hand01_02]
26 71.020905 0.000060 0.000119 0.002323 -0.000334 106.381714 71.020905
27 71.020905 0.000060 0.000119 0.002323 -0.000334 106.381714 71.020905
[R_front_hand02_02]
26 71.020844 -0.000030 -0.000119 0.002323 -0.000334 106.381714 71.020836
27 71.020844 -0.000030 -0.000119 0.002323 -0.000334 106.381714 71.020836
[R_front_hand03_02]
26 71.020905 0.000000 0.000030 0.002323 -0.000334 106.381714 71.020905
27 71.020905 0.000000 0.000030 0.002323 -0.000334 106.381714 71.020905
[null_rope01_connect]
26 328.732483 0.000000 -0.000238 -119.541275 -47.109665 -141.366821 328.732483
27 328.732483 0.000000 -0.000238 -119.541275 -47.109665 -141.366821 328.732483
[Rope1_Seg01]
26 0.000000 0.000000 0.000000 26.371857 7.038004 -112.452347 0.000000
27 0.000000 0.000000 0.000000 29.102324 2.091816 -111.711243 0.000000
[Rope1_Seg02]
26 139.999863 -0.000179 0.000000 0.049977 -1.646302 1.801435 139.999863
27 139.999863 -0.000179 0.000000 0.249693 -1.817700 1.827909 139.999863
[Rope1_Seg03]
26 139.999924 0.000060 -0.000060 -0.566198 -1.954761 2.544116 139.999924
27 139.999924 0.000060 -0.000060 -0.119946 -2.394988 2.739983 139.999924
[Rope1_Seg04]
26 139.999924 -0.000060 -0.000119 -4.300018 -2.416684 6.352668 139.999924
27 139.999924 -0.000060 -0.000119 -2.271441 -5.112575 7.992241 139.999924
[Rope1_Seg05]
26 139.999832 0.000119 -0.000060 10.762703 -3.759160 -5.055755 139.999832
27 139.999832 0.000119 -0.000060 5.859708 2.374635 -8.508487 139.999832
[Rope1_Seg06]
26 139.999954 0.000119 -0.000060 7.889733 -2.114403 -4.131448 139.999954
27 139.999954 0.000119 -0.000060 7.768248 2.372909 -8.194125 139.999954
[Rope1_Seg07]
26 139.999985 0.000060 0.000000 2.816813 -1.135162 -1.050392 139.999985
27 139.999985 0.000060 0.000000 3.939973 0.227233 -2.672924 139.999985
[Rope1_Seg09]
26 121.602913 0.000119 -0.000089 -89.793175 -1.359789 0.847147 121.602913
27 121.602913 0.000119 -0.000089 -89.793175 -1.359789 0.847147 121.602913
[L_mid_hand01]
26 103.859421 1.038730 8.195221 106.855484 -31.239275 -9.461397 104.187431
27 103.859421 1.038730 8.195221 106.855484 -31.239275 -9.461397 104.187431
[L_mid_hand02]
26 105.572853 -4.139662 -10.864139 -142.331345 25.752670 -28.774628 106.211075
27 105.572853 -4.139662 -10.864139 -142.331345 25.752670 -28.774628 106.211075
[L_mid_hand03]
26 104.641464 17.579376 -3.913581 -16.122810 9.734291 34.223598 106.179977
27 104.641464 17.579376 -3.913581 -16.122810 9.734291 34.223598 106.179977
[null_rope02_connect]
26 328.732849 0.000179 -0.000119 -116.029831 50.874489 -29.531239 328.732849
27 328.732849 0.000179 -0.000119 -116.029831 50.874489 -29.531246 328.732849
[Rope2_Seg01]
26 -0.000038 0.000153 0.000000 86.764442 9.228461 -63.663811 0.000157
27 -0.000038 0.000153 0.000000 75.430992 0.906486 -66.534882 0.000157
[Rope2_Seg02]
26 139.999741 -0.000060 -0.000119 -15.317357 2.621288 6.096525 139.999756
27 139.999741 -0.000060 -0.000119 -9.095217 2.208283 4.764935 139.999756
[Rope2_Seg03]
26 140.000107 0.000030 0.000000 -16.832287 3.352063 6.827946 140.000107
27 140.000107 0.000030 0.000000 -12.464040 0.901593 8.408698 140.000107
[Rope2_Seg04]
26 139.999802 0.000000 -0.000060 0.013622 -1.813603 0.807677 139.999802
27 139.999802 0.000000 -0.000060 2.213236 1.104383 -2.020122 139.999802
[Rope2_Seg05]
26 139.999985 -0.000060 0.000119 13.849405 -4.520076 -6.074068 139.999985
27 139.999985 -0.000060 0.000119 15.531367 2.018698 -9.735107 139.999985
[Rope2_Seg06]
26 139.999893 -0.000030 -0.000119 6.060236 -3.059282 -2.543556 139.999893
27 139.999893 -0.000030 -0.000119 8.837359 -0.297915 -4.536519 139.999893
[Rope2_Seg07]
26 139.999893 0.000060 -0.000060 2.244112 -1.519805 -0.869129 139.999893
27 139.999893 0.000060 -0.000060 4.264128 -0.422379 -2.038365 139.999893
[Rope2_Seg09]
26 121.338966 0.000089 -0.000060 33.793236 -1.359788 -0.847141 121.338966
27 121.338966 0.000089 -0.000060 33.793236 -1.359788 -0.847141 121.338966
[R_mid_hand01]
26 104.680779 11.144459 -10.335981 -41.523792 25.424656 28.595957 105.778534
27 104.680779 11.144459 -10.335981 -41.523792 25.424656 28.595957 105.778534
[R_mid_hand02]
26 104.070427 2.443552 8.231699 72.847389 -32.746803 10.013901 104.424065
27 104.070427 2.443552 8.231699 72.847389 -32.746803 10.013901 104.424065
[R_mid_hand03]
26 106.028137 -11.221827 -5.996406 -167.901306 10.259192 -37.009720 106.788818
27 106.028137 -11.221827 -5.996406 -167.901306 10.259192 -37.009720 106.788818
[spine02]
26 129.756927 0.001550 0.000119 0.360061 -4.044797 -12.915058 129.756927
27 129.756927 0.001550 0.000119 0.360061 -4.044797 -12.915058 129.756927
[spine03]
26 78.613846 0.087372 -4.898873 1.896495 3.831288 16.473045 78.766380
27 78.613846 0.087372 -4.898873 1.896495 3.831288 16.473045 78.766380
[pelvis]
26 169.435242 0.051022 0.000000 -0.060465 -0.180225 14.087930 169.435257
27 169.435242 0.051022 0.000000 -0.060465 -0.180225 14.087930 169.435257
[null_rope03_connect]
26 -1.257226 -2.466202 137.391083 156.329987 -89.381348 -94.430771 137.418976
27 -1.257226 -2.466202 137.391083 156.330139 -89.381348 -94.430740 137.418976
[null_rope04_connect]
26 -1.259640 -2.480268 -137.844437 156.329987 -89.381348 -94.430771 137.872513
27 -1.259640 -2.480268 -137.844437 156.330139 -89.381348 -94.430740 137.872513
[Rope3_Seg01]
26 0.000010 0.000038 -0.000114 -129.966644 30.063332 -71.975174 0.000121
27 0.000010 0.000038 -0.000114 -130.049118 23.699306 -72.811470 0.000121
[Rope3_Seg02]
26 139.999924 -0.000119 0.000060 0.530099 6.595185 -0.458218 139.999924
27 139.999924 -0.000119 0.000060 0.409093 5.309680 1.738691 139.999924
[Rope3_Seg03]
26 139.999924 -0.000119 0.000119 0.915812 7.001714 -0.284189 139.999924
27 139.999924 -0.000119 0.000119 0.737677 5.703607 2.148030 139.999924
[Rope3_Seg04]
26 139.999924 0.000119 0.000000 2.613215 12.346801 2.613243 139.999924
27 139.999924 0.000119 0.000000 2.125962 10.114714 5.853201 139.999924
[Rope3_Seg05]
26 139.999924 -0.000238 0.000060 0.819804 0.255619 -3.681787 139.999924
27 139.999924 -0.000238 0.000060 0.387760 -1.717925 -3.635313 139.999924
[Rope3_Seg06]
26 139.999893 -0.000119 -0.000060 0.311002 -10.819118 -7.619223 139.999893
27 139.999893 -0.000119 -0.000060 0.591508 -10.180886 -9.341389 139.999893
[Rope3_Seg07]
26 139.999771 0.000060 -0.000119 0.708239 -5.665897 -4.263214 139.999771
27 139.999771 0.000060 -0.000119 0.672640 -4.823402 -4.636497 139.999771
[Rope3_Seg08]
26 139.999985 -0.000060 0.000000 0.650779 -2.464768 -2.114894 139.999985
27 139.999985 -0.000060 0.000000 0.620628 -2.266608 -2.276358 139.999985
[Rope3_Seg09]
26 90.185997 -0.000179 -0.000060 89.793228 -1.359877 -0.847183 90.185997
27 90.185997 -0.000179 -0.000060 89.793228 -1.359877 -0.847183 90.185997
[R_rear_hand01]
26 103.366196 -6.073594 -10.757982 -161.551193 16.666374 -30.088671 104.101845
27 103.366196 -6.073594 -10.757982 -161.551193 16.666374 -30.088671 104.101845
[R_rear_hand02]
26 100.509819 12.039542 -7.992327 -34.280552 19.289745 28.875523 101.543350
27 100.509819 12.039542 -7.992327 -34.280552 19.289745 28.875523 101.543350
[R_rear_hand03]
26 101.539970 5.215704 5.435467 83.366440 -30.933914 7.284830 101.819031
27 101.539970 5.215704 5.435467 83.366440 -30.933914 7.284830 101.819031
[Rope4_Seg01]
26 0.000010 0.000038 -0.000114 58.323185 33.073284 -84.307869 0.000121
27 0.000010 0.000038 -0.000114 57.540833 28.540899 -81.631798 0.000121
[Rope4_Seg02]
26 139.999985 0.000060 0.000119 -1.900852 -9.682528 1.071103 139.999985
27 139.999985 0.000060 0.000119 -1.789416 -12.123878 -0.275866 139.999985
[Rope4_Seg03]
26 139.999924 0.000000 -0.000238 -1.156071 -12.837139 0.823540 139.999924
27 139.999924 0.000000 -0.000238 -0.543410 -15.657246 -1.191680 139.999924
[Rope4_Seg04]
26 139.999985 0.000000 0.000119 2.339021 -26.256405 -4.115310 139.999985
27 139.999985 0.000000 0.000119 3.293636 -26.565495 -6.243007 139.999985
[Rope4_Seg05]
26 139.999802 -0.000060 -0.000119 2.008263 -2.002660 5.024224 139.999802
27 139.999802 -0.000060 -0.000119 1.852289 -1.748297 3.248650 139.999802
[Rope4_Seg06]
26 139.999924 0.000000 0.000060 3.641919 26.573591 14.837341 139.999924
27 139.999924 0.000000 0.000060 3.159488 25.514719 13.659788 139.999924
[Rope4_Seg07]
26 139.999802 0.000000 0.000000 0.830627 13.460148 7.689990 139.999802
27 139.999802 0.000000 0.000000 1.409909 16.670488 8.909676 139.999802
[Rope4_Seg08]
26 139.999924 0.000000 0.000119 -1.624711 5.681058 3.566531 139.999924
27 139.999924 0.000000 0.000119 -1.413184 6.938974 3.975105 139.999924
[Rope4_Seg09]
26 90.185791 0.000060 0.000060 -135.617828 2.228885 0.850567 90.185791
27 90.185791 0.000060 0.000060 -135.617828 2.228885 0.850567 90.185791
[L_rear_hand01]
26 101.696655 -8.392275 -7.654577 -34.454281 -18.946800 151.655121 102.329041
27 101.696655 -8.392275 -7.654577 -34.454281 -18.946800 151.655121 102.329041
[L_rear_hand02]
26 102.726799 -1.568258 5.773216 83.407906 30.330435 172.796509 102.900848
27 102.726799 -1.568258 5.773216 83.407906 30.330435 172.796509 102.900848
[L_rear_hand03]
26 104.552910 9.721220 -10.420293 -161.379868 -16.473232 -150.512238 105.519653
27 104.552910 9.721220 -10.420293 -161.379868 -16.473232 -150.512238 105.519653
